<svg class="svg-icon" style="width: 1em;height: 1em;vertical-align: middle;fill: currentColor;overflow: hidden;"
     viewBox="0 0 1024 1024" version="1.1" xmlns="http://www.w3.org/2000/svg">
    <path d="M512.008 81.856c-237.562 0-430.14 192.588-430.14 430.15 0 237.55 192.578 430.134 430.14 430.134 237.546 0 430.132-192.584 430.132-430.134 0-237.562-192.586-430.15-430.132-430.15z"
          fill="#EDF3FC"/>
    <path d="M512.008 2.002C230.786 2.002 2 230.786 2 512.006 2 793.218 230.786 1022 512.008 1022 793.222 1022 1022 793.218 1022 512.006 1022 230.786 793.222 2.002 512.008 2.002z m0 1003.66c-272.21 0-493.664-221.454-493.664-493.656 0-272.21 221.454-493.668 493.664-493.668 272.204 0 493.648 221.458 493.648 493.668 0 272.202-221.446 493.656-493.648 493.656z"
          fill="#EDF3FC"/>
    <path d="M874.79 593.664a59.444 59.444 0 0 1-43.188-43.184l-0.912-3.63-0.902 3.63a59.452 59.452 0 0 1-43.192 43.184l-3.632 0.92 3.632 0.908a59.426 59.426 0 0 1 43.192 43.186l0.902 3.632 0.912-3.632a59.418 59.418 0 0 1 43.188-43.186l3.642-0.908-3.642-0.92z"
          fill="#330D84"/>
    <path d="M434.308 185.784a44.104 44.104 0 0 1-32.046-32.042l-0.676-2.698-0.672 2.698a44.104 44.104 0 0 1-32.05 32.042l-2.696 0.686 2.696 0.672a44.094 44.094 0 0 1 32.05 32.042l0.672 2.7 0.676-2.7a44.096 44.096 0 0 1 32.046-32.042l2.704-0.672-2.704-0.686z"
          fill="#FFBE1B"/>
    <path d="M263.484 367.954a42.978 42.978 0 0 1-31.228-31.224l-0.658-2.626-0.656 2.626a42.968 42.968 0 0 1-31.224 31.224l-2.628 0.664 2.628 0.658a42.954 42.954 0 0 1 31.224 31.222l0.656 2.626 0.658-2.626a42.956 42.956 0 0 1 31.228-31.222l2.63-0.658-2.63-0.664z"
          fill="#5D8EF9"/>
    <path d="M491.532 153.662a27.3 27.3 0 0 1-19.836-19.832l-0.418-1.67-0.416 1.67a27.3 27.3 0 0 1-19.836 19.832l-1.67 0.422 1.67 0.418a27.29 27.29 0 0 1 19.836 19.832l0.416 1.668 0.418-1.668a27.29 27.29 0 0 1 19.836-19.832l1.672-0.418-1.672-0.422zM741.774 563.35c-0.742 0.096-1.498 0.162-2.254 0.226-0.378 0.034-0.75 0.08-1.128 0.106a51.424 51.424 0 0 1-52.368-35.406l-10.238-31.484h-0.01c4.61 14.492 2.478 29.128-4.3 41.008l-0.042 0.066c-8.462 14.816-24.338 24.806-41.414 25.832-1.07 0.066-2.15 0.1-3.242 0.1h-6.766c-26.254 0-48.294-19.778-51.126-45.88l-1.906-17.588 0.704 6.5c3.296 30.42-20.528 56.968-51.122 56.968h-9.12c-30.586 0-54.404-26.536-51.122-56.946l-1.2 11.064c-2.832 26.104-24.868 45.88-51.126 45.88-5.454 0-10.898 0.136-16.29-0.868-0.42-0.078-0.828-0.182-1.244-0.27-14.272-3.018-26.678-12.172-33.908-24.822-6.8-11.92-8.936-26.554-4.324-41.046h-0.008l-10.238 31.484c-1.566 4.702-4.002 9.506-6.738 13.628-10.45 15.74-30.528 23.888-49.016 21.446-0.444-0.058-0.878-0.136-1.318-0.206a49.04 49.04 0 0 1-9.94-2.678v188.252h482.064V560.46a47.808 47.808 0 0 1-11.26 2.89z"
          fill="#FFBE1B"/>
    <path d="M318.7 349.796l-74.832 138.076c-18.572 34.264 6.236 75.926 45.21 75.926a51.426 51.426 0 0 0 48.902-35.522l58.04-178.48h-77.32z"
          fill="#6857E5"/>
    <path d="M403.716 349.796h-7.698l-47.698 146.674c-10.804 33.228 13.962 67.328 48.904 67.328h6.766c26.258 0 48.292-19.778 51.126-45.88l11.216-103.482c-28.59-12.232-51.262-35.598-62.616-64.64z"
          fill="#330D84"/>
    <path d="M567.682 506.828l-10.014-92.396a115.88 115.88 0 0 1-45.67 9.324 115.878 115.878 0 0 1-45.664-9.322l-10.016 92.394c-3.296 30.42 20.528 56.968 51.122 56.968h9.12c30.594 0 54.418-26.548 51.122-56.968z"
          fill="#6857E5"/>
    <path d="M675.678 496.468l-47.696-146.674h-7.7c-11.354 29.042-34.024 52.406-62.616 64.636l11.216 103.484c2.832 26.104 24.87 45.88 51.126 45.88h6.766c34.942 0.002 59.708-34.096 48.904-67.326z"
          fill="#330D84"/>
    <path d="M780.134 487.872l-74.832-138.076h-77.32l58.04 178.48a51.424 51.424 0 0 0 48.902 35.522c38.972-0.002 63.782-41.664 45.21-75.926z"
          fill="#6857E5"/>
    <path d="M240.06 496.79c-10.396 32.164 13.376 67.006 49.018 67.006a51.426 51.426 0 0 0 48.902-35.522l10.238-31.484H240.06zM567.682 506.828l-1.086-10.038h-109.19l-1.088 10.038c-3.296 30.42 20.528 56.968 51.122 56.968h9.12c30.594 0 54.418-26.548 51.122-56.968z"
          fill="#8C7BFD"/>
    <path d="M675.772 496.79h-109.176l2.29 21.126c2.832 26.104 24.87 45.88 51.126 45.88h6.766c34.826 0 59.536-33.878 48.994-67.006z"
          fill="#5932AE"/>
    <path d="M783.94 496.79h-108.156l10.238 31.484a51.424 51.424 0 0 0 48.902 35.522c35.64 0 59.414-34.84 49.016-67.006z"
          fill="#8C7BFD"/>
    <path d="M330.584 591.558h180.102v102.358h-180.102zM642.74 581.572c-28.516 0-51.632 23.792-51.632 53.144v114.002h103.266v-114.002c-0.002-29.35-23.118-53.144-51.634-53.144z"
          fill="#8AC9F9"/>
    <path d="M754.384 748.718H264.55a15.472 15.472 0 0 0-15.474 15.472v21.214h520.786v-21.214a15.474 15.474 0 0 0-15.478-15.472z"
          fill="#330D84"/>
    <path d="M348.228 496.79c-10.542 33.128 14.168 67.006 48.998 67.006h6.766c26.258 0 48.292-19.778 51.126-45.88l2.29-21.126h-109.18z"
          fill="#5932AE"/>
    <path d="M609.862 663.956a9.348 9.348 0 1 0 0 18.698 9.348 9.348 0 0 0 0-18.698zM511.998 191.256c-64.202 0-116.25 52.042-116.25 116.25 0 64.204 52.048 116.25 116.25 116.25 64.204 0 116.254-52.046 116.254-116.25 0-64.208-52.05-116.25-116.254-116.25z"
          fill="#FFBE1B"/>
    <path d="M511.998 220.248c-48.194 0-87.264 39.06-87.264 87.258 0 48.19 39.07 87.26 87.264 87.26 48.196 0 87.262-39.07 87.262-87.26 0-48.198-39.066-87.258-87.262-87.258z"
          fill="#FFE37B"/>
    <path d="M547.178 312.95c-3.11-3.59-7.286-5.954-12.536-7.084a69.116 69.116 0 0 0 3.028-1.396c0.562-0.278 1.578-0.986 3.028-2.118 4.286-3.226 6.422-8.154 6.422-14.774 0-5.492-1.898-10.412-5.692-14.77-2.102-2.344-5.23-4.2-9.39-5.58a35.146 35.146 0 0 0-3.958-1.02v-10.77h-14.852v9.736h-9.958v-9.736h-14.858v9.736h-16.26v15.982h12.108v52.682h-12.108v15.988h16.26v9.742h14.858v-9.742h9.958v9.742h14.852v-10.104c8.074-0.872 13.992-3.352 17.708-7.504 4.032-4.52 6.054-9.728 6.054-15.626 0-5.328-1.554-9.786-4.664-13.384z m-44.02-31.792h9.084c5.57 0 9.52 0.608 11.86 1.818 2.346 1.208 3.514 3.686 3.514 7.448 0 3.752-1.274 6.202-3.81 7.326-2.546 1.128-6.444 1.696-11.684 1.696h-8.962v-18.288z m25.13 50.688c-2.71 1.332-6.768 1.994-12.174 1.994h-12.956v-19.488h11.142c6.294 0 10.876 0.622 13.74 1.87 2.868 1.256 4.304 3.84 4.304 7.756 0.002 3.91-1.35 6.536-4.056 7.868z"
          fill="#FFFFFF"/>
</svg>
